# xmcd
#
# Track frame offsets:
#	150
#	18673
#	33799
#	53608
#	71010
#	89900
#	110719
#	129622
#	143446
#	160260
#	177792
#	200946
#
# Disc length: 2885 seconds
#
# Revision: 0
# Processed by: cddbd v1.5.2PL0 Copyright (c) Steve Scherf et al.
# Submitted via: EasyCDDAExtractor 2010.4.0.0
#
DISCID=ac0b430c
DTITLE=Callaghan - Life In Full Colour
DYEAR=2011
DGENRE=Country
TTITLE0=Best Year
TTITLE1=To Be Loved By You
TTITLE2=Nothing You Say
TTITLE3=It Was Meant To Be
TTITLE4=Close My Eyes
TTITLE5=Sweet Surrender
TTITLE6=Look Around
TTITLE7=The Only Real Thing
TTITLE8=Get Me Through Tonight
TTITLE9=Smile
TTITLE10=The Edge Of Love
TTITLE11=If Only For Tonight
EXTD=
EXTT0=
EXTT1=
EXTT2=
EXTT3=
EXTT4=
EXTT5=
EXTT6=
EXTT7=
EXTT8=
EXTT9=
EXTT10=
EXTT11=
PLAYORDER=
